<svg width="40" height="40" viewBox="0 0 40 40" fill="none" xmlns="http://www.w3.org/2000/svg">
<circle cx="20" cy="20" r="20" fill="#F16214" fill-opacity="0.15"/>
<path d="M20.5 18.55C19.9828 18.55 19.4868 18.7554 19.1211 19.1211C18.7554 19.4868 18.55 19.9828 18.55 20.5C18.55 21.0172 18.7554 21.5132 19.1211 21.8789C19.4868 22.2446 19.9828 22.45 20.5 22.45C21.0172 22.45 21.5132 22.2446 21.8789 21.8789C22.2446 21.5132 22.45 21.0172 22.45 20.5C22.45 19.9828 22.2446 19.4868 21.8789 19.1211C21.5132 18.7554 21.0172 18.55 20.5 18.55ZM20.5 17.25C21.362 17.25 22.1886 17.5924 22.7981 18.2019C23.4076 18.8114 23.75 19.638 23.75 20.5C23.75 21.362 23.4076 22.1886 22.7981 22.7981C22.1886 23.4076 21.362 23.75 20.5 23.75C19.638 23.75 18.8114 23.4076 18.2019 22.7981C17.5924 22.1886 17.25 21.362 17.25 20.5C17.25 19.638 17.5924 18.8114 18.2019 18.2019C18.8114 17.5924 19.638 17.25 20.5 17.25ZM24.725 17.0875C24.725 17.303 24.6394 17.5097 24.487 17.662C24.3347 17.8144 24.128 17.9 23.9125 17.9C23.697 17.9 23.4903 17.8144 23.338 17.662C23.1856 17.5097 23.1 17.303 23.1 17.0875C23.1 16.872 23.1856 16.6653 23.338 16.513C23.4903 16.3606 23.697 16.275 23.9125 16.275C24.128 16.275 24.3347 16.3606 24.487 16.513C24.6394 16.6653 24.725 16.872 24.725 17.0875ZM20.5 15.3C18.8919 15.3 18.6293 15.3046 17.8812 15.3377C17.3716 15.3618 17.0296 15.43 16.7124 15.5535C16.4303 15.6627 16.2269 15.7933 16.0104 16.0104C15.807 16.207 15.6506 16.447 15.5528 16.7124C15.4293 17.0309 15.3611 17.3722 15.3377 17.8812C15.3039 18.5988 15.3 18.8496 15.3 20.5C15.3 22.1081 15.3046 22.3707 15.3377 23.1188C15.3618 23.6278 15.43 23.9703 15.5528 24.2869C15.6633 24.5696 15.7933 24.7731 16.0092 24.9889C16.2282 25.2073 16.4316 25.3379 16.7111 25.4458C17.0322 25.57 17.3742 25.6389 17.8812 25.6623C18.5988 25.6961 18.8496 25.7 20.5 25.7C22.1081 25.7 22.3707 25.6954 23.1188 25.6623C23.6271 25.6382 23.9697 25.57 24.2869 25.4471C24.5683 25.3373 24.7731 25.2066 24.9889 24.9908C25.2079 24.7718 25.3386 24.5683 25.4465 24.2888C25.57 23.9684 25.6389 23.6258 25.6623 23.1188C25.6961 22.4012 25.7 22.1503 25.7 20.5C25.7 18.8919 25.6954 18.6293 25.6623 17.8812C25.6382 17.3728 25.57 17.0296 25.4465 16.7124C25.3485 16.4473 25.1924 16.2074 24.9895 16.0104C24.7931 15.8069 24.5531 15.6505 24.2875 15.5528C23.969 15.4293 23.6271 15.3611 23.1188 15.3377C22.4012 15.3039 22.1503 15.3 20.5 15.3ZM20.5 14C22.2661 14 22.4864 14.0065 23.1793 14.039C23.8715 14.0715 24.3428 14.1801 24.7575 14.3413C25.1865 14.5064 25.5479 14.7299 25.9093 15.0907C26.2398 15.4156 26.4956 15.8087 26.6587 16.2425C26.8193 16.6565 26.9285 17.1284 26.961 17.8207C26.9915 18.5136 27 18.734 27 20.5C27 22.2661 26.9935 22.4864 26.961 23.1793C26.9285 23.8715 26.8193 24.3428 26.6587 24.7575C26.496 25.1916 26.2402 25.5847 25.9093 25.9093C25.5843 26.2397 25.1912 26.4954 24.7575 26.6587C24.3434 26.8193 23.8715 26.9285 23.1793 26.961C22.4864 26.9915 22.2661 27 20.5 27C18.734 27 18.5136 26.9935 17.8207 26.961C17.1284 26.9285 16.6572 26.8193 16.2425 26.6587C15.8085 26.4959 15.4154 26.2401 15.0907 25.9093C14.7601 25.5844 14.5044 25.1914 14.3413 24.7575C14.1801 24.3434 14.0715 23.8715 14.039 23.1793C14.0084 22.4864 14 22.2661 14 20.5C14 18.734 14.0065 18.5136 14.039 17.8207C14.0715 17.1278 14.1801 16.6572 14.3413 16.2425C14.5039 15.8084 14.7597 15.4153 15.0907 15.0907C15.4155 14.76 15.8086 14.5042 16.2425 14.3413C16.6572 14.1801 17.1278 14.0715 17.8207 14.039C18.5136 14.0084 18.734 14 20.5 14Z" fill="#56A299"/>
</svg>
