<svg width="50" height="51" viewBox="0 0 50 51" fill="none" xmlns="http://www.w3.org/2000/svg">
<rect x="1.08511" y="0.751953" width="47.959" height="48.5" rx="9.25" stroke="#EEEEEE" stroke-width="1.5"/>
<path d="M31.4943 30.0178C31.3641 30.0185 31.2351 29.9933 31.1146 29.9435C30.994 29.8938 30.8844 29.8204 30.792 29.7278C30.6993 29.6348 30.6257 29.5242 30.5755 29.4023C30.5252 29.2805 30.4994 29.1498 30.4994 29.0178C30.4994 28.8857 30.5252 28.755 30.5755 28.6332C30.6257 28.5113 30.6993 28.4007 30.792 28.3078L34.0662 25.0178L30.9206 21.7078C30.7363 21.5204 30.6329 21.2669 30.6329 21.0028C30.6329 20.7386 30.7363 20.4851 30.9206 20.2978C31.0125 20.204 31.1219 20.1296 31.2425 20.0789C31.363 20.0281 31.4923 20.002 31.6229 20.002C31.7535 20.002 31.8828 20.0281 32.0033 20.0789C32.1239 20.1296 32.2333 20.204 32.3252 20.2978L36.1435 24.2978C36.3247 24.4847 36.4262 24.736 36.4262 24.9978C36.4262 25.2595 36.3247 25.5108 36.1435 25.6978L32.1867 29.6978C32.0979 29.7947 31.991 29.8729 31.8722 29.9278C31.7533 29.9827 31.6249 30.0133 31.4943 30.0178Z" fill="#56A299"/>
<line x1="33.9565" y1="25.0176" x2="15.1837" y2="25.0176" stroke="#56A299" stroke-width="2" stroke-linecap="round"/>
</svg>
