<svg width="40" height="40" viewBox="0 0 40 40" fill="none" xmlns="http://www.w3.org/2000/svg">
<circle cx="20" cy="20" r="20" fill="#F16214" fill-opacity="0.15"/>
<path d="M15.8887 15.4451C15.8885 15.8282 15.7362 16.1955 15.4652 16.4662C15.1942 16.7369 14.8267 16.8889 14.4436 16.8887C14.0606 16.8885 13.6933 16.7362 13.4225 16.4652C13.1518 16.1942 12.9998 15.8267 13 15.4436C13.0002 15.0606 13.1525 14.6933 13.4236 14.4225C13.6946 14.1518 14.062 13.9998 14.4451 14C14.8282 14.0002 15.1955 14.1525 15.4662 14.4236C15.7369 14.6946 15.8889 15.062 15.8887 15.4451ZM15.9321 17.9583H13.0433V27H15.9321V17.9583ZM20.4963 17.9583H17.622V27H20.4674V22.2553C20.4674 19.6121 23.9122 19.3665 23.9122 22.2553V27H26.7648V21.2731C26.7648 16.8172 21.6662 16.9833 20.4674 19.1715L20.4963 17.9583Z" fill="#56A299"/>
</svg>
