<svg width="50" height="51" viewBox="0 0 50 51" fill="none" xmlns="http://www.w3.org/2000/svg">
<rect x="49.9286" y="50.002" width="49.459" height="50" rx="10" transform="rotate(-180 49.9286 50.002)" fill="#56A299"/>
<path d="M18.7694 19.9862C18.8996 19.9854 19.0286 20.0106 19.1491 20.0604C19.2697 20.1101 19.3793 20.1835 19.4717 20.2762C19.5644 20.3691 19.638 20.4797 19.6882 20.6016C19.7385 20.7234 19.7643 20.8541 19.7643 20.9862C19.7643 21.1182 19.7385 21.2489 19.6882 21.3707C19.638 21.4926 19.5644 21.6032 19.4717 21.6962L16.1975 24.9862L19.3431 28.2962C19.5274 28.4835 19.6308 28.737 19.6308 29.0012C19.6308 29.2653 19.5274 29.5188 19.3431 29.7062C19.2512 29.7999 19.1418 29.8743 19.0212 29.925C18.9007 29.9758 18.7714 30.002 18.6408 30.002C18.5102 30.002 18.3809 29.9758 18.2604 29.925C18.1398 29.8743 18.0304 29.7999 17.9385 29.7062L14.1202 25.7062C13.939 25.5192 13.8375 25.2679 13.8375 25.0062C13.8375 24.7444 13.939 24.4931 14.1202 24.3062L18.077 20.3062C18.1658 20.2092 18.2727 20.131 18.3915 20.0761C18.5104 20.0212 18.6388 19.9906 18.7694 19.9862Z" fill="white"/>
<line x1="16.3073" y1="24.9863" x2="35.0801" y2="24.9863" stroke="white" stroke-width="2" stroke-linecap="round"/>
</svg>
