<svg width="40" height="40" viewBox="0 0 40 40" fill="none" xmlns="http://www.w3.org/2000/svg">
<circle cx="20" cy="20" r="20" fill="#F16214" fill-opacity="0.15"/>
<path d="M27.9882 15.5432C27.3893 15.8081 26.7543 15.9821 26.1041 16.0594C26.7894 15.6495 27.3024 15.0044 27.5473 14.2443C26.9041 14.6271 26.199 14.8953 25.464 15.0404C24.9703 14.5122 24.3159 14.1619 23.6026 14.044C22.8893 13.926 22.157 14.047 21.5195 14.3882C20.8821 14.7294 20.3752 15.2716 20.0777 15.9306C19.7802 16.5895 19.7088 17.3283 19.8745 18.0321C18.5701 17.9667 17.2941 17.6278 16.1292 17.0372C14.9644 16.4467 13.9368 15.6178 13.113 14.6043C12.8215 15.1051 12.6683 15.6744 12.6691 16.2539C12.6691 17.3913 13.248 18.3961 14.128 18.9843C13.6072 18.968 13.0979 18.8273 12.6424 18.5741V18.6149C12.6426 19.3724 12.9047 20.1065 13.3843 20.6928C13.864 21.2791 14.5316 21.6814 15.274 21.8317C14.7905 21.9627 14.2836 21.982 13.7915 21.8881C14.0009 22.5402 14.4089 23.1104 14.9584 23.519C15.5079 23.9276 16.1715 24.1541 16.8561 24.1668C16.1757 24.7012 15.3965 25.0963 14.5633 25.3294C13.73 25.5625 12.859 25.6291 12 25.5253C13.4995 26.4897 15.2451 27.0017 17.0279 27C23.0622 27 26.3621 22.0011 26.3621 17.6658C26.3621 17.5246 26.3582 17.3818 26.3519 17.2422C26.9942 16.778 27.5486 16.2029 27.9889 15.544L27.9882 15.5432Z" fill="#56A299"/>
</svg>
